PathFileType	4	(X/Y/Z)	output.trc
DataRate	CameraRate	NumFrames	NumMarkers	Units	OrigDataRate	OrigDataStartFrame	OrigNumFrames
100	100	17	23	m	100	3533	4710
Frame#	Time	C7			T8			EL			EM			US			RS			AA			Fore_Clus_1			Fore_Clus_2			Fore_Clus_3			Fore_Clus_4			Hum_Clus_1			Hum_Clus_2			Hum_Clus_3			Hum_Clus_4			Thor_Clus_1			Thor_Clus_2			Thor_Clus_3			Thor_Clus_4			IJ			PX			GH			Thor_Clus_5		
		X1	Y1	Z1	X2	Y2	Z2	X3	Y3	Z3	X4	Y4	Z4	X5	Y5	Z5	X6	Y6	Z6	X7	Y7	Z7	X8	Y8	Z8	X9	Y9	Z9	X10	Y10	Z10	X11	Y11	Z11	X12	Y12	Z12	X13	Y13	Z13	X14	Y14	Z14	X15	Y15	Z15	X16	Y16	Z16	X17	Y17	Z17	X18	Y18	Z18	X19	Y19	Z19	X20	Y20	Z20	X21	Y21	Z21	X22	Y22	Z22	X23	Y23	Z23
3532	35.320000	-0.088043	1.435804	-0.178431	-0.134085	1.217446	-0.200349	-0.381530	1.419116	0.095592	-0.353069	1.370580	0.126755	-0.507666	1.541576	0.286271	-0.470512	1.527611	0.318674	-0.226462	1.391685	-0.054189	-0.470387	1.555550	0.244587	-0.496519	1.576242	0.288140	-0.474199	1.570766	0.303888	-0.434343	1.546510	0.269931	-0.329400	1.465427	0.023341	-0.353055	1.417412	-0.004032	-0.321685	1.419658	-0.059065	-0.287171	1.462224	-0.037382	0.013938	1.333845	-0.037858	-0.030973	1.297956	0.024394	-0.025054	1.338648	-0.016106	0.024842	1.289813	-0.007904	-0.039223	1.358914	-0.084938	-0.033860	1.171031	-0.006601	-0.193714	1.380034	-0.097121	-0.035883	1.317288	0.010735
3533	35.330000	-0.088140	1.435951	-0.178149	-0.133995	1.217612	-0.200643	-0.381979	1.415126	0.096687	-0.353104	1.366460	0.127260	-0.508907	1.533630	0.289083	-0.471583	1.519586	0.321256	-0.226546	1.391394	-0.054048	-0.471617	1.548809	0.247336	-0.498196	1.568369	0.291435	-0.475865	1.562716	0.307313	-0.435643	1.539504	0.272731	-0.330385	1.462598	0.024896	-0.353570	1.414741	-0.003028	-0.322104	1.417873	-0.057954	-0.288080	1.460516	-0.035805	0.013913	1.333707	-0.037840	-0.030978	1.297582	0.024278	-0.025122	1.338400	-0.016090	0.024835	1.289598	-0.007985	-0.039273	1.358860	-0.084847	-0.033766	1.170778	-0.006998	-0.194027	1.379795	-0.096616	-0.035932	1.316948	0.010692
3534	35.340000	-0.088261	1.436072	-0.177875	-0.133924	1.217750	-0.200911	-0.382407	1.411117	0.097759	-0.353108	1.362340	0.127748	-0.510088	1.525625	0.291817	-0.472592	1.511510	0.323757	-0.226644	1.391090	-0.053902	-0.473058	1.541555	0.250392	-0.499306	1.560887	0.294026	-0.477169	1.554841	0.310077	-0.437022	1.532393	0.275526	-0.331258	1.459895	0.026459	-0.354107	1.412082	-0.001945	-0.322738	1.416102	-0.056790	-0.289092	1.458746	-0.034059	0.013836	1.333544	-0.037836	-0.030885	1.297183	0.024234	-0.025071	1.338174	-0.016094	0.024812	1.289399	-0.008063	-0.039340	1.358794	-0.084756	-0.033680	1.170527	-0.007368	-0.194351	1.379540	-0.096091	-0.035994	1.316630	0.010655
3535	35.350000	-0.088417	1.436150	-0.177613	-0.133875	1.217838	-0.201142	-0.382812	1.407091	0.098809	-0.353083	1.358221	0.128218	-0.511206	1.517568	0.294470	-0.473534	1.503387	0.326173	-0.226765	1.390761	-0.053749	-0.474376	1.534515	0.253212	-0.501103	1.552547	0.297648	-0.478576	1.546846	0.312976	-0.438222	1.525244	0.278223	-0.332184	1.457020	0.028078	-0.354602	1.409394	-0.000909	-0.323439	1.414269	-0.055858	-0.289990	1.457008	-0.032624	0.013768	1.333409	-0.037820	-0.031037	1.296903	0.024160	-0.025661	1.337915	-0.015888	0.024798	1.289226	-0.008105	-0.039429	1.358709	-0.084665	-0.033598	1.170273	-0.007701	-0.194686	1.379265	-0.095548	-0.036046	1.316304	0.010682
3536	35.360000	-0.088613	1.436177	-0.177367	-0.133845	1.217865	-0.201336	-0.383195	1.403046	0.099834	-0.353029	1.354102	0.128669	-0.512260	1.509465	0.297038	-0.474411	1.495223	0.328502	-0.226911	1.390395	-0.053593	-0.475609	1.527340	0.255795	-0.502694	1.544384	0.300881	-0.479882	1.538918	0.315941	-0.439379	1.518146	0.280663	-0.333100	1.454239	0.029624	-0.355078	1.406584	0.000091	-0.324016	1.412425	-0.054636	-0.290968	1.455150	-0.031138	0.013670	1.333221	-0.037796	-0.031061	1.296602	0.024109	-0.019781	1.339991	-0.014968	0.024757	1.289042	-0.008156	-0.039542	1.358600	-0.084577	-0.033514	1.170015	-0.007992	-0.195033	1.378969	-0.094988	-0.036104	1.315987	0.010653
3537	35.370000	-0.088843	1.436152	-0.177139	-0.133822	1.217832	-0.201498	-0.383557	1.398982	0.100834	-0.352949	1.349981	0.129099	-0.513252	1.501327	0.299515	-0.475228	1.487024	0.330741	-0.227081	1.389987	-0.053440	-0.476920	1.520118	0.258367	-0.503899	1.536315	0.303362	-0.481436	1.530750	0.318787	-0.440592	1.510925	0.283279	-0.333932	1.451320	0.031158	-0.355505	1.403829	0.001135	-0.324671	1.410569	-0.053947	-0.291943	1.453267	-0.029587	0.013605	1.333101	-0.037738	-0.031114	1.296336	0.024075	-0.024935	1.337850	-0.015600	0.024710	1.288854	-0.008187	-0.039677	1.358466	-0.084491	-0.033425	1.169751	-0.008246	-0.195394	1.378650	-0.094413	-0.036230	1.315623	0.010594
3538	35.380000	-0.089119	1.436065	-0.176930	-0.133811	1.217722	-0.201619	-0.383899	1.394898	0.101806	-0.352845	1.345854	0.129506	-0.514179	1.493154	0.301902	-0.475982	1.478792	0.332887	-0.227280	1.389525	-0.053285	-0.478178	1.512651	0.261224	-0.505731	1.527840	0.306947	-0.482480	1.522542	0.321447	-0.441661	1.503725	0.285609	-0.334869	1.448375	0.032646	-0.356124	1.401197	0.002199	-0.325359	1.408539	-0.052706	-0.292930	1.451461	-0.028153	0.013466	1.332902	-0.037730	-0.031122	1.295945	0.024067	-0.024769	1.337753	-0.015474	0.024708	1.288655	-0.008140	-0.039838	1.358301	-0.084407	-0.033326	1.169478	-0.008454	-0.195767	1.378306	-0.093826	-0.036331	1.315320	0.010608
3539	35.390000	-0.089430	1.435925	-0.176735	-0.133797	1.217549	-0.201713	-0.384222	1.390794	0.102748	-0.352722	1.341721	0.129886	-0.515046	1.484958	0.304192	-0.476680	1.470533	0.334938	-0.227505	1.389010	-0.053136	-0.479213	1.505649	0.263568	-0.506493	1.519964	0.309174	-0.483668	1.514390	0.324137	-0.442596	1.496561	0.288056	-0.335689	1.445453	0.034134	-0.356615	1.398360	0.003183	-0.326026	1.406635	-0.051702	-0.293895	1.449458	-0.026649	0.013348	1.332730	-0.037668	-0.031133	1.295672	0.024071	-0.025056	1.337462	-0.015425	0.024576	1.288488	-0.008225	-0.040020	1.358110	-0.084324	-0.033214	1.169194	-0.008626	-0.196155	1.377936	-0.093226	-0.036391	1.314949	0.010603
3540	35.400000	-0.089779	1.435731	-0.176552	-0.133780	1.217310	-0.201779	-0.384527	1.386671	0.103661	-0.352581	1.337578	0.130238	-0.515853	1.476740	0.306385	-0.477322	1.462251	0.336895	-0.227757	1.388439	-0.052988	-0.480308	1.498248	0.266068	-0.507532	1.511764	0.311682	-0.484797	1.506207	0.326763	-0.443554	1.489240	0.290478	-0.336577	1.442483	0.035583	-0.357125	1.395540	0.004144	-0.326550	1.404726	-0.050841	-0.294938	1.447537	-0.025213	0.013176	1.332548	-0.037595	-0.031233	1.295365	0.024075	-0.025122	1.337237	-0.015310	0.024518	1.288298	-0.008220	-0.040225	1.357892	-0.084239	-0.033089	1.168900	-0.008763	-0.196557	1.377538	-0.092615	-0.036480	1.314668	0.010645
3541	35.410000	-0.090163	1.435492	-0.176376	-0.133757	1.217014	-0.201823	-0.384816	1.382529	0.104543	-0.352428	1.333427	0.130560	-0.516600	1.468506	0.308479	-0.477910	1.453950	0.338755	-0.228034	1.387813	-0.052842	-0.481243	1.490946	0.268363	-0.508690	1.503319	0.314540	-0.485738	1.497910	0.329190	-0.444390	1.481788	0.292653	-0.337381	1.439519	0.037056	-0.357600	1.392739	0.005117	-0.327145	1.402692	-0.049810	-0.295800	1.445590	-0.023730	0.012978	1.332323	-0.037522	-0.031314	1.295035	0.024101	-0.025129	1.337018	-0.015209	0.024412	1.288088	-0.008214	-0.040450	1.357651	-0.084150	-0.032948	1.168595	-0.008870	-0.196974	1.377113	-0.091992	-0.036563	1.314351	0.010649
3542	35.420000	-0.090570	1.435222	-0.176200	-0.133719	1.216681	-0.201856	-0.385092	1.378371	0.105393	-0.352265	1.329266	0.130849	-0.517292	1.460262	0.310473	-0.478450	1.445634	0.340518	-0.228332	1.387140	-0.052700	-0.482091	1.483518	0.270730	-0.509709	1.495180	0.317064	-0.486580	1.489641	0.331550	-0.445332	1.474360	0.294839	-0.338195	1.436487	0.038464	-0.358053	1.389907	0.006069	-0.327779	1.400669	-0.048803	-0.296769	1.443691	-0.022462	0.012679	1.332064	-0.037442	-0.031571	1.294645	0.024091	-0.025404	1.336721	-0.015058	0.024295	1.287896	-0.008187	-0.040689	1.357393	-0.084054	-0.032794	1.168279	-0.008959	-0.197405	1.376660	-0.091358	-0.036717	1.314133	0.010781
3543	35.430000	-0.091005	1.434924	-0.176017	-0.133672	1.216312	-0.201875	-0.385356	1.374201	0.106212	-0.352097	1.325099	0.131105	-0.517927	1.452011	0.312370	-0.478937	1.437309	0.342186	-0.228652	1.386423	-0.052554	-0.482901	1.476196	0.273043	-0.510450	1.487114	0.319220	-0.487504	1.481349	0.334048	-0.445989	1.466930	0.296905	-0.339005	1.433406	0.039783	-0.358452	1.387090	0.006986	-0.328032	1.398743	-0.047698	-0.297713	1.441695	-0.021024	0.012482	1.331903	-0.037324	-0.031561	1.294219	0.024132	-0.022254	1.337785	-0.014793	0.024176	1.287685	-0.008139	-0.040946	1.357120	-0.083947	-0.032627	1.167953	-0.009030	-0.197852	1.376180	-0.090712	-0.036885	1.313787	0.010857
3544	35.440000	-0.091451	1.434621	-0.175819	-0.133608	1.215936	-0.201897	-0.385608	1.370024	0.106998	-0.351925	1.320928	0.131329	-0.518510	1.443760	0.314167	-0.479379	1.428981	0.343759	-0.228987	1.385675	-0.052407	-0.483686	1.468819	0.275239	-0.511389	1.478701	0.322139	-0.488188	1.473184	0.336255	-0.446656	1.459530	0.299018	-0.339836	1.430428	0.041239	-0.358935	1.384246	0.007955	-0.328688	1.396746	-0.046670	-0.298611	1.439612	-0.019624	0.012244	1.331720	-0.037221	-0.031741	1.293856	0.024200	-0.025604	1.336586	-0.014172	0.024045	1.287478	-0.008079	-0.041212	1.356841	-0.083827	-0.032453	1.167620	-0.009099	-0.198314	1.375675	-0.090053	-0.037072	1.313374	0.010976
3545	35.450000	-0.091910	1.434320	-0.175601	-0.133533	1.215562	-0.201922	-0.385852	1.365845	0.107755	-0.351754	1.316760	0.131520	-0.519040	1.435514	0.315868	-0.479772	1.420656	0.345237	-0.229335	1.384904	-0.052253	-0.484378	1.461391	0.277231	-0.512031	1.470833	0.323574	-0.488994	1.464794	0.338519	-0.447219	1.452083	0.300911	-0.340623	1.427398	0.042550	-0.359365	1.381436	0.008822	-0.329322	1.394673	-0.045648	-0.299465	1.437371	-0.018261	0.012070	1.331551	-0.037089	-0.031922	1.293435	0.024307	-0.023983	1.337835	-0.012278	0.023904	1.287283	-0.007983	-0.041488	1.356561	-0.083690	-0.032275	1.167280	-0.009169	-0.198791	1.375145	-0.089380	-0.037282	1.312911	0.011146
3546	35.460000	-0.092375	1.434033	-0.175355	-0.133450	1.215204	-0.201953	-0.386087	1.361672	0.108481	-0.351583	1.312599	0.131682	-0.519519	1.427279	0.317475	-0.480116	1.412342	0.346625	-0.229694	1.384121	-0.052088	-0.485058	1.453999	0.279300	-0.512813	1.462192	0.326028	-0.489679	1.456682	0.340181	-0.447798	1.444755	0.302689	-0.341338	1.424301	0.044010	-0.359804	1.378583	0.009704	-0.329958	1.392683	-0.044630	-0.300359	1.435307	-0.016788	0.011866	1.331390	-0.036959	-0.031837	1.293218	0.024445	-0.023001	1.337265	-0.014012	0.023767	1.287099	-0.007914	-0.041773	1.356286	-0.083534	-0.032099	1.166936	-0.009247	-0.199283	1.374593	-0.088693	-0.037239	1.312794	0.011201
3547	35.470000	-0.092836	1.433776	-0.175076	-0.133356	1.214884	-0.202002	-0.386314	1.357511	0.109180	-0.351415	1.308453	0.131814	-0.519947	1.419063	0.318990	-0.480415	1.404047	0.347922	-0.230058	1.383342	-0.051914	-0.485679	1.446662	0.281194	-0.513453	1.453951	0.327839	-0.490291	1.448415	0.342497	-0.448440	1.437301	0.304484	-0.342046	1.421231	0.045411	-0.360314	1.375671	0.010527	-0.330570	1.390731	-0.043611	-0.301207	1.433211	-0.015269	0.011585	1.331174	-0.036784	-0.032131	1.292703	0.024479	-0.022903	1.337008	-0.014128	0.023605	1.286899	-0.007807	-0.042061	1.356023	-0.083356	-0.031930	1.166590	-0.009342	-0.199789	1.374020	-0.087990	-0.037610	1.312295	0.011231
3548	35.480000	-0.093299	1.433550	-0.174762	-0.133266	1.214603	-0.202060	-0.386532	1.353372	0.109854	-0.351249	1.304331	0.131921	-0.520324	1.410872	0.320419	-0.480660	1.395782	0.349133	-0.230430	1.382572	-0.051722	-0.486296	1.439176	0.282909	-0.514061	1.445713	0.329832	-0.490760	1.440398	0.344157	-0.448983	1.429919	0.306053	-0.342745	1.418051	0.046814	-0.360768	1.372865	0.011483	-0.331128	1.388744	-0.042577	-0.302071	1.431050	-0.013758	0.011298	1.330974	-0.036630	-0.032279	1.292319	0.024571	-0.023096	1.336739	-0.014041	0.023449	1.286687	-0.007734	-0.042356	1.355773	-0.083156	-0.031773	1.166244	-0.009451	-0.200308	1.373430	-0.087272	-0.037899	1.311882	0.011366
